<svg xmlns="http://www.w3.org/2000/svg" version="1.1" xmlns:xlink="http://www.w3.org/1999/xlink" xmlns:svgjs="http://svgjs.dev/svgjs" width="2000" height="328" viewBox="0 0 2000 328"><g transform="matrix(1,0,0,1,-1.2121212121212466,0.7001661418503318)"><svg viewBox="0 0 396 65" data-background-color="#ffffff" preserveAspectRatio="xMidYMid meet" height="328" width="2000" xmlns="http://www.w3.org/2000/svg" xmlns:xlink="http://www.w3.org/1999/xlink"><g id="tight-bounds" transform="matrix(1,0,0,1,0.2400000000000091,-0.13875243664716663)"><svg viewBox="0 0 395.52 65.27750487329435" height="65.27750487329435" width="395.52"><g><svg viewBox="0 0 395.52 65.27750487329435" height="65.27750487329435" width="395.52"><g><svg viewBox="0 0 395.52 65.27750487329435" height="65.27750487329435" width="395.52"><g id="textblocktransform"><svg viewBox="0 0 395.52 65.27750487329435" height="65.27750487329435" width="395.52" id="textblock"><g><svg viewBox="0 0 395.52 65.27750487329435" height="65.27750487329435" width="395.52"><g transform="matrix(1,0,0,1,0,0)"><svg width="395.52" viewBox="3.93 -36.25 225.43 37.2" height="65.27750487329435" data-palette-color="#0070f0"><path d="M4.44 0.34L4.44-11.94Q6.81-10.38 9.42-9.02 12.04-7.67 14.83-6.67 17.63-5.66 20.57-5.09 23.51-4.52 26.56-4.52L26.56-4.52Q27.73-4.52 28.82-4.66 29.91-4.81 30.73-5.14 31.54-5.47 32.04-6.02 32.54-6.57 32.54-7.35L32.54-7.35Q32.54-8.06 32.13-8.78 31.71-9.5 30.53-10.16 29.35-10.82 27.22-11.39 25.1-11.96 21.7-12.4L21.7-12.4Q17.16-12.99 13.82-13.92 10.47-14.84 8.28-16.28 6.08-17.72 5-19.75 3.93-21.78 3.93-24.56L3.93-24.56Q3.93-27.22 5.14-29.33 6.35-31.45 8.62-32.91 10.89-34.38 14.14-35.16 17.38-35.94 21.46-35.94L21.46-35.94Q23.14-35.94 24.85-35.75 26.56-35.57 28.22-35.25 29.88-34.94 31.47-34.51 33.06-34.08 34.45-33.62L34.45-33.62 39.23-36.25 42.58-36.25 42.58-24.54Q39.97-26.07 37.32-27.25 34.67-28.42 32.07-29.21 29.47-30 26.99-30.41 24.51-30.81 22.27-30.81L22.27-30.81Q20.8-30.81 19.62-30.59 18.43-30.37 17.61-30 16.8-29.64 16.36-29.14 15.92-28.64 15.92-28.08L15.92-28.08Q15.92-27.27 16.36-26.62 16.8-25.98 18.07-25.42 19.34-24.85 21.63-24.33 23.93-23.8 27.64-23.19L27.64-23.19Q30.1-22.78 32.35-22.31 34.59-21.85 36.52-21.2 38.45-20.56 40-19.65 41.55-18.75 42.65-17.48 43.75-16.21 44.35-14.5 44.95-12.79 44.95-10.52L44.95-10.52Q44.95-7.5 43.48-5.32 42.02-3.15 39.53-1.76 37.04-0.37 33.73 0.29 30.42 0.95 26.76 0.95L26.76 0.95Q23.34 0.95 19.85 0.23 16.36-0.49 13.16-2.1L13.16-2.1 9.25 0.34 4.44 0.34ZM45.99 0L53.17-6.13 64.67-29.03 59.42-35.01 88.03-35.01 83.62-28.81 93.92-6.18 100.34 0 74.7 0 80.03-6.13 78.98-8.69 62.86-8.69 61.72-6.13 68.72 0 45.99 0ZM65.16-13.79L76.93-13.79 71.34-27.56 65.16-13.79ZM100.09 0L106.95-6.2 106.95-28.83 100.09-35.01 119.58-35.01 119.58-21.63 133-21.63 133-35.01 152.02-35.01 145.62-28.81 145.62-6.2 152.49 0 133 0 133-16.53 119.58-16.53 119.58 0 100.09 0ZM160.34 0L160.34-28.81 154.68-35.01 172.97-35.01 172.97-6.2 178.63 0 160.34 0ZM180.82 0L188.42-6.2 188.42-28.81 180.85-35.01Q182.63-35.03 184.85-35.05 187.07-35.06 189.44-35.08 191.81-35.11 194.18-35.12 196.55-35.13 198.65-35.14 200.75-35.16 202.43-35.17 204.12-35.18 205.12-35.18L205.12-35.18Q207.44-35.18 209.98-35.08 212.51-34.99 214.97-34.66 217.42-34.33 219.63-33.68 221.84-33.03 223.51-31.95 225.19-30.86 226.17-29.26 227.16-27.66 227.16-25.42L227.16-25.42Q227.16-23.49 226.5-22.14 225.84-20.8 224.6-19.9 223.35-18.99 221.56-18.49 219.77-17.99 217.47-17.75L217.47-17.75Q220.16-17.48 222.35-16.94 224.55-16.41 226.1-15.47 227.65-14.53 228.51-13.09 229.36-11.65 229.36-9.59L229.36-9.59Q229.36-7.35 228.37-5.75 227.38-4.15 225.71-3.06 224.04-1.98 221.83-1.33 219.62-0.68 217.17-0.35 214.71-0.02 212.17 0.07 209.63 0.17 207.31 0.17L207.31 0.17Q206.22 0.17 204.37 0.16 202.53 0.15 200.23 0.13 197.94 0.12 195.36 0.11 192.79 0.1 190.21 0.07 187.64 0.05 185.21 0.04 182.78 0.02 180.82 0L180.82 0ZM201.28-20L204.36-20Q205.12-20 206.12-20.02 207.12-20.04 208.19-20.18 209.27-20.31 210.3-20.59 211.34-20.87 212.16-21.4 212.98-21.92 213.48-22.73 213.98-23.54 213.98-24.71L213.98-24.71Q213.98-26.42 213.09-27.44 212.2-28.47 210.79-29.02 209.39-29.57 207.68-29.74 205.97-29.91 204.36-29.91L204.36-29.91 201.28-29.91 201.28-20ZM201.28-5.1L206.07-5.1Q207.17-5.1 208.34-5.14 209.51-5.18 210.63-5.35 211.76-5.52 212.77-5.85 213.78-6.18 214.54-6.79 215.3-7.4 215.74-8.3 216.18-9.2 216.18-10.5L216.18-10.5Q216.18-11.89 215.57-12.84 214.96-13.79 213.7-14.39 212.44-14.99 210.54-15.25 208.63-15.5 206.07-15.5L206.07-15.5 201.28-15.5 201.28-5.1Z" opacity="1" transform="matrix(1,0,0,1,0,0)" fill="#0070f0" class="wordmark-text-0" data-fill-palette-color="primary" id="text-0"></path></svg></g></svg></g></svg></g></svg></g></svg></g><defs></defs></svg><rect width="395.52" height="65.27750487329435" fill="none" stroke="none" visibility="hidden"></rect></g></svg></g></svg>